<svg xmlns="http://www.w3.org/2000/svg" width="1000" height="250" viewBox="0 0 1000 250" role="img" aria-label="Contribution activity graph, 2189 contributions in the last year">
<style>
svg{font-family:Inter,ui-sans-serif,system-ui,-apple-system,"Segoe UI",sans-serif}
.card{fill:#07162a;stroke:#1d426a;stroke-width:2}
.cell{stroke:#07162a;stroke-width:2}
.pulse{animation:pulse 2.5s ease-in-out infinite}
@keyframes pulse{50%{opacity:.55}}
</style>
<rect x="6" y="6" width="988" height="238" rx="26" class="card"/>
<text x="34" y="42" fill="#67e8f9" font-size="13" font-weight="900" letter-spacing="2">CONTRIBUTION ACTIVITY</text>
<text x="965" y="42" text-anchor="end" fill="#eaf5ff" font-size="15" font-weight="900">2,189 contributions in the last year</text>
<g transform="translate(34 65)"><text x="0" y="0" fill="#55708f" font-size="10" font-weight="800">AUG</text><text x="76" y="0" fill="#55708f" font-size="10" font-weight="800">SEP</text><text x="153" y="0" fill="#55708f" font-size="10" font-weight="800">OCT</text><text x="230" y="0" fill="#55708f" font-size="10" font-weight="800">NOV</text><text x="306" y="0" fill="#55708f" font-size="10" font-weight="800">DEC</text><text x="383" y="0" fill="#55708f" font-size="10" font-weight="800">JAN</text><text x="460" y="0" fill="#55708f" font-size="10" font-weight="800">FEB</text><text x="536" y="0" fill="#55708f" font-size="10" font-weight="800">MAR</text><text x="613" y="0" fill="#55708f" font-size="10" font-weight="800">APR</text><text x="690" y="0" fill="#55708f" font-size="10" font-weight="800">MAY</text><text x="766" y="0" fill="#55708f" font-size="10" font-weight="800">JUN</text><text x="843" y="0" fill="#55708f" font-size="10" font-weight="800">JUL</text><text x="920" y="0" fill="#55708f" font-size="10" font-weight="800">AUG</text><rect class=" cell" x="0" y="22" width="13" height="18" rx="4" fill="#0e243d" style="animation-delay:0.00s"/><rect class=" cell" x="0" y="44" width="13" height="18" rx="4" fill="#0e243d" style="animation-delay:0.02s"/><rect class=" cell" x="0" y="66" width="13" height="18" rx="4" fill="#0e243d" style="animation-delay:0.04s"/><rect class=" cell" x="0" y="88" width="13" height="18" rx="4" fill="#0e243d" style="animation-delay:0.05s"/><rect class=" cell" x="0" y="110" width="13" height="18" rx="4" fill="#0e243d" style="animation-delay:0.07s"/><rect class=" cell" x="0" y="132" width="13" height="18" rx="4" fill="#0e243d" style="animation-delay:0.09s"/><rect class=" cell" x="0" y="154" width="13" height="18" rx="4" fill="#0e243d" style="animation-delay:0.11s"/><rect class=" cell" x="17" y="22" width="13" height="18" rx="4" fill="#12365b" style="animation-delay:0.02s"/><rect class=" cell" x="17" y="44" width="13" height="18" rx="4" fill="#12365b" style="animation-delay:0.04s"/><rect class=" cell" x="17" y="66" width="13" height="18" rx="4" fill="#185083" style="animation-delay:0.05s"/><rect class=" cell" x="17" y="88" width="13" height="18" rx="4" fill="#12365b" style="animation-delay:0.07s"/><rect class=" cell" x="17" y="110" width="13" height="18" rx="4" fill="#12365b" style="animation-delay:0.09s"/><rect class=" cell" x="17" y="132" width="13" height="18" rx="4" fill="#0e243d" style="animation-delay:0.11s"/><rect class=" cell" x="17" y="154" width="13" height="18" rx="4" fill="#0e243d" style="animation-delay:0.13s"/><rect class=" cell" x="34" y="22" width="13" height="18" rx="4" fill="#12365b" style="animation-delay:0.04s"/><rect class=" cell" x="34" y="44" width="13" height="18" rx="4" fill="#0e243d" style="animation-delay:0.05s"/><rect class=" cell" x="34" y="66" width="13" height="18" rx="4" fill="#0e243d" style="animation-delay:0.07s"/><rect class=" cell" x="34" y="88" width="13" height="18" rx="4" fill="#185083" style="animation-delay:0.09s"/><rect class=" cell" x="34" y="110" width="13" height="18" rx="4" fill="#12365b" style="animation-delay:0.11s"/><rect class=" cell" x="34" y="132" width="13" height="18" rx="4" fill="#0e243d" style="animation-delay:0.13s"/><rect class=" cell" x="34" y="154" width="13" height="18" rx="4" fill="#0e243d" style="animation-delay:0.14s"/><rect class=" cell" x="51" y="22" width="13" height="18" rx="4" fill="#12365b" style="animation-delay:0.05s"/><rect class=" cell" x="51" y="44" width="13" height="18" rx="4" fill="#12365b" style="animation-delay:0.07s"/><rect class=" cell" x="51" y="66" width="13" height="18" rx="4" fill="#12365b" style="animation-delay:0.09s"/><rect class=" cell" x="51" y="88" width="13" height="18" rx="4" fill="#185083" style="animation-delay:0.11s"/><rect class=" cell" x="51" y="110" width="13" height="18" rx="4" fill="#185083" style="animation-delay:0.13s"/><rect class=" cell" x="51" y="132" width="13" height="18" rx="4" fill="#0e243d" style="animation-delay:0.14s"/><rect class=" cell" x="51" y="154" width="13" height="18" rx="4" fill="#0e243d" style="animation-delay:0.16s"/><rect class=" cell" x="68" y="22" width="13" height="18" rx="4" fill="#12365b" style="animation-delay:0.07s"/><rect class=" cell" x="68" y="44" width="13" height="18" rx="4" fill="#185083" style="animation-delay:0.09s"/><rect class=" cell" x="68" y="66" width="13" height="18" rx="4" fill="#12365b" style="animation-delay:0.11s"/><rect class=" cell" x="68" y="88" width="13" height="18" rx="4" fill="#185083" style="animation-delay:0.13s"/><rect class=" cell" x="68" y="110" width="13" height="18" rx="4" fill="#12365b" style="animation-delay:0.14s"/><rect class=" cell" x="68" y="132" width="13" height="18" rx="4" fill="#0e243d" style="animation-delay:0.16s"/><rect class=" cell" x="68" y="154" width="13" height="18" rx="4" fill="#12365b" style="animation-delay:0.18s"/><rect class=" cell" x="85" y="22" width="13" height="18" rx="4" fill="#12365b" style="animation-delay:0.09s"/><rect class=" cell" x="85" y="44" width="13" height="18" rx="4" fill="#12365b" style="animation-delay:0.11s"/><rect class=" cell" x="85" y="66" width="13" height="18" rx="4" fill="#0e243d" style="animation-delay:0.13s"/><rect class="pulse cell" x="85" y="88" width="13" height="18" rx="4" fill="#2470b1" style="animation-delay:0.14s"/><rect class="pulse cell" x="85" y="110" width="13" height="18" rx="4" fill="#38bdf8" style="animation-delay:0.16s"/><rect class=" cell" x="85" y="132" width="13" height="18" rx="4" fill="#0e243d" style="animation-delay:0.18s"/><rect class=" cell" x="85" y="154" width="13" height="18" rx="4" fill="#185083" style="animation-delay:0.20s"/><rect class=" cell" x="102" y="22" width="13" height="18" rx="4" fill="#0e243d" style="animation-delay:0.11s"/><rect class=" cell" x="102" y="44" width="13" height="18" rx="4" fill="#0e243d" style="animation-delay:0.13s"/><rect class=" cell" x="102" y="66" width="13" height="18" rx="4" fill="#0e243d" style="animation-delay:0.14s"/><rect class=" cell" x="102" y="88" width="13" height="18" rx="4" fill="#185083" style="animation-delay:0.16s"/><rect class=" cell" x="102" y="110" width="13" height="18" rx="4" fill="#185083" style="animation-delay:0.18s"/><rect class=" cell" x="102" y="132" width="13" height="18" rx="4" fill="#185083" style="animation-delay:0.20s"/><rect class=" cell" x="102" y="154" width="13" height="18" rx="4" fill="#185083" style="animation-delay:0.22s"/><rect class=" cell" x="119" y="22" width="13" height="18" rx="4" fill="#0e243d" style="animation-delay:0.13s"/><rect class=" cell" x="119" y="44" width="13" height="18" rx="4" fill="#0e243d" style="animation-delay:0.14s"/><rect class=" cell" x="119" y="66" width="13" height="18" rx="4" fill="#0e243d" style="animation-delay:0.16s"/><rect class=" cell" x="119" y="88" width="13" height="18" rx="4" fill="#12365b" style="animation-delay:0.18s"/><rect class=" cell" x="119" y="110" width="13" height="18" rx="4" fill="#185083" style="animation-delay:0.20s"/><rect class=" cell" x="119" y="132" width="13" height="18" rx="4" fill="#185083" style="animation-delay:0.22s"/><rect class=" cell" x="119" y="154" width="13" height="18" rx="4" fill="#12365b" style="animation-delay:0.23s"/><rect class=" cell" x="136" y="22" width="13" height="18" rx="4" fill="#0e243d" style="animation-delay:0.14s"/><rect class=" cell" x="136" y="44" width="13" height="18" rx="4" fill="#0e243d" style="animation-delay:0.16s"/><rect class=" cell" x="136" y="66" width="13" height="18" rx="4" fill="#0e243d" style="animation-delay:0.18s"/><rect class=" cell" x="136" y="88" width="13" height="18" rx="4" fill="#12365b" style="animation-delay:0.20s"/><rect class=" cell" x="136" y="110" width="13" height="18" rx="4" fill="#185083" style="animation-delay:0.22s"/><rect class="pulse cell" x="136" y="132" width="13" height="18" rx="4" fill="#2470b1" style="animation-delay:0.23s"/><rect class=" cell" x="136" y="154" width="13" height="18" rx="4" fill="#12365b" style="animation-delay:0.25s"/><rect class=" cell" x="153" y="22" width="13" height="18" rx="4" fill="#0e243d" style="animation-delay:0.16s"/><rect class=" cell" x="153" y="44" width="13" height="18" rx="4" fill="#0e243d" style="animation-delay:0.18s"/><rect class=" cell" x="153" y="66" width="13" height="18" rx="4" fill="#0e243d" style="animation-delay:0.20s"/><rect class=" cell" x="153" y="88" width="13" height="18" rx="4" fill="#12365b" style="animation-delay:0.22s"/><rect class=" cell" x="153" y="110" width="13" height="18" rx="4" fill="#185083" style="animation-delay:0.23s"/><rect class=" cell" x="153" y="132" width="13" height="18" rx="4" fill="#185083" style="animation-delay:0.25s"/><rect class="pulse cell" x="153" y="154" width="13" height="18" rx="4" fill="#2470b1" style="animation-delay:0.27s"/><rect class=" cell" x="170" y="22" width="13" height="18" rx="4" fill="#0e243d" style="animation-delay:0.18s"/><rect class=" cell" x="170" y="44" width="13" height="18" rx="4" fill="#0e243d" style="animation-delay:0.20s"/><rect class=" cell" x="170" y="66" width="13" height="18" rx="4" fill="#0e243d" style="animation-delay:0.22s"/><rect class=" cell" x="170" y="88" width="13" height="18" rx="4" fill="#0e243d" style="animation-delay:0.23s"/><rect class=" cell" x="170" y="110" width="13" height="18" rx="4" fill="#12365b" style="animation-delay:0.25s"/><rect class="pulse cell" x="170" y="132" width="13" height="18" rx="4" fill="#2470b1" style="animation-delay:0.27s"/><rect class=" cell" x="170" y="154" width="13" height="18" rx="4" fill="#12365b" style="animation-delay:0.29s"/><rect class=" cell" x="187" y="22" width="13" height="18" rx="4" fill="#0e243d" style="animation-delay:0.20s"/><rect class=" cell" x="187" y="44" width="13" height="18" rx="4" fill="#0e243d" style="animation-delay:0.22s"/><rect class=" cell" x="187" y="66" width="13" height="18" rx="4" fill="#0e243d" style="animation-delay:0.23s"/><rect class=" cell" x="187" y="88" width="13" height="18" rx="4" fill="#0e243d" style="animation-delay:0.25s"/><rect class=" cell" x="187" y="110" width="13" height="18" rx="4" fill="#185083" style="animation-delay:0.27s"/><rect class=" cell" x="187" y="132" width="13" height="18" rx="4" fill="#12365b" style="animation-delay:0.29s"/><rect class=" cell" x="187" y="154" width="13" height="18" rx="4" fill="#185083" style="animation-delay:0.31s"/><rect class=" cell" x="204" y="22" width="13" height="18" rx="4" fill="#185083" style="animation-delay:0.22s"/><rect class=" cell" x="204" y="44" width="13" height="18" rx="4" fill="#185083" style="animation-delay:0.23s"/><rect class=" cell" x="204" y="66" width="13" height="18" rx="4" fill="#0e243d" style="animation-delay:0.25s"/><rect class=" cell" x="204" y="88" width="13" height="18" rx="4" fill="#12365b" style="animation-delay:0.27s"/><rect class=" cell" x="204" y="110" width="13" height="18" rx="4" fill="#185083" style="animation-delay:0.29s"/><rect class=" cell" x="204" y="132" width="13" height="18" rx="4" fill="#0e243d" style="animation-delay:0.31s"/><rect class=" cell" x="204" y="154" width="13" height="18" rx="4" fill="#12365b" style="animation-delay:0.32s"/><rect class=" cell" x="221" y="22" width="13" height="18" rx="4" fill="#12365b" style="animation-delay:0.23s"/><rect class=" cell" x="221" y="44" width="13" height="18" rx="4" fill="#185083" style="animation-delay:0.25s"/><rect class=" cell" x="221" y="66" width="13" height="18" rx="4" fill="#12365b" style="animation-delay:0.27s"/><rect class=" cell" x="221" y="88" width="13" height="18" rx="4" fill="#12365b" style="animation-delay:0.29s"/><rect class=" cell" x="221" y="110" width="13" height="18" rx="4" fill="#0e243d" style="animation-delay:0.31s"/><rect class=" cell" x="221" y="132" width="13" height="18" rx="4" fill="#0e243d" style="animation-delay:0.32s"/><rect class=" cell" x="221" y="154" width="13" height="18" rx="4" fill="#0e243d" style="animation-delay:0.34s"/><rect class=" cell" x="238" y="22" width="13" height="18" rx="4" fill="#12365b" style="animation-delay:0.25s"/><rect class=" cell" x="238" y="44" width="13" height="18" rx="4" fill="#185083" style="animation-delay:0.27s"/><rect class=" cell" x="238" y="66" width="13" height="18" rx="4" fill="#12365b" style="animation-delay:0.29s"/><rect class=" cell" x="238" y="88" width="13" height="18" rx="4" fill="#0e243d" style="animation-delay:0.31s"/><rect class=" cell" x="238" y="110" width="13" height="18" rx="4" fill="#0e243d" style="animation-delay:0.32s"/><rect class=" cell" x="238" y="132" width="13" height="18" rx="4" fill="#0e243d" style="animation-delay:0.34s"/><rect class=" cell" x="238" y="154" width="13" height="18" rx="4" fill="#0e243d" style="animation-delay:0.36s"/><rect class=" cell" x="255" y="22" width="13" height="18" rx="4" fill="#185083" style="animation-delay:0.27s"/><rect class=" cell" x="255" y="44" width="13" height="18" rx="4" fill="#185083" style="animation-delay:0.29s"/><rect class=" cell" x="255" y="66" width="13" height="18" rx="4" fill="#12365b" style="animation-delay:0.31s"/><rect class=" cell" x="255" y="88" width="13" height="18" rx="4" fill="#185083" style="animation-delay:0.32s"/><rect class=" cell" x="255" y="110" width="13" height="18" rx="4" fill="#0e243d" style="animation-delay:0.34s"/><rect class=" cell" x="255" y="132" width="13" height="18" rx="4" fill="#0e243d" style="animation-delay:0.36s"/><rect class=" cell" x="255" y="154" width="13" height="18" rx="4" fill="#0e243d" style="animation-delay:0.38s"/><rect class="pulse cell" x="272" y="22" width="13" height="18" rx="4" fill="#2470b1" style="animation-delay:0.29s"/><rect class="pulse cell" x="272" y="44" width="13" height="18" rx="4" fill="#38bdf8" style="animation-delay:0.31s"/><rect class=" cell" x="272" y="66" width="13" height="18" rx="4" fill="#185083" style="animation-delay:0.32s"/><rect class=" cell" x="272" y="88" width="13" height="18" rx="4" fill="#12365b" style="animation-delay:0.34s"/><rect class=" cell" x="272" y="110" width="13" height="18" rx="4" fill="#185083" style="animation-delay:0.36s"/><rect class=" cell" x="272" y="132" width="13" height="18" rx="4" fill="#0e243d" style="animation-delay:0.38s"/><rect class=" cell" x="272" y="154" width="13" height="18" rx="4" fill="#0e243d" style="animation-delay:0.40s"/><rect class=" cell" x="289" y="22" width="13" height="18" rx="4" fill="#0e243d" style="animation-delay:0.31s"/><rect class=" cell" x="289" y="44" width="13" height="18" rx="4" fill="#12365b" style="animation-delay:0.32s"/><rect class=" cell" x="289" y="66" width="13" height="18" rx="4" fill="#185083" style="animation-delay:0.34s"/><rect class=" cell" x="289" y="88" width="13" height="18" rx="4" fill="#0e243d" style="animation-delay:0.36s"/><rect class=" cell" x="289" y="110" width="13" height="18" rx="4" fill="#12365b" style="animation-delay:0.38s"/><rect class=" cell" x="289" y="132" width="13" height="18" rx="4" fill="#185083" style="animation-delay:0.40s"/><rect class=" cell" x="289" y="154" width="13" height="18" rx="4" fill="#185083" style="animation-delay:0.41s"/><rect class=" cell" x="306" y="22" width="13" height="18" rx="4" fill="#12365b" style="animation-delay:0.32s"/><rect class=" cell" x="306" y="44" width="13" height="18" rx="4" fill="#12365b" style="animation-delay:0.34s"/><rect class="pulse cell" x="306" y="66" width="13" height="18" rx="4" fill="#2470b1" style="animation-delay:0.36s"/><rect class=" cell" x="306" y="88" width="13" height="18" rx="4" fill="#185083" style="animation-delay:0.38s"/><rect class=" cell" x="306" y="110" width="13" height="18" rx="4" fill="#12365b" style="animation-delay:0.40s"/><rect class="pulse cell" x="306" y="132" width="13" height="18" rx="4" fill="#2470b1" style="animation-delay:0.41s"/><rect class="pulse cell" x="306" y="154" width="13" height="18" rx="4" fill="#2470b1" style="animation-delay:0.43s"/><rect class=" cell" x="323" y="22" width="13" height="18" rx="4" fill="#12365b" style="animation-delay:0.34s"/><rect class=" cell" x="323" y="44" width="13" height="18" rx="4" fill="#185083" style="animation-delay:0.36s"/><rect class="pulse cell" x="323" y="66" width="13" height="18" rx="4" fill="#38bdf8" style="animation-delay:0.38s"/><rect class="pulse cell" x="323" y="88" width="13" height="18" rx="4" fill="#38bdf8" style="animation-delay:0.40s"/><rect class="pulse cell" x="323" y="110" width="13" height="18" rx="4" fill="#38bdf8" style="animation-delay:0.41s"/><rect class="pulse cell" x="323" y="132" width="13" height="18" rx="4" fill="#38bdf8" style="animation-delay:0.43s"/><rect class="pulse cell" x="323" y="154" width="13" height="18" rx="4" fill="#38bdf8" style="animation-delay:0.45s"/><rect class=" cell" x="340" y="22" width="13" height="18" rx="4" fill="#12365b" style="animation-delay:0.36s"/><rect class="pulse cell" x="340" y="44" width="13" height="18" rx="4" fill="#2470b1" style="animation-delay:0.38s"/><rect class=" cell" x="340" y="66" width="13" height="18" rx="4" fill="#185083" style="animation-delay:0.40s"/><rect class="pulse cell" x="340" y="88" width="13" height="18" rx="4" fill="#38bdf8" style="animation-delay:0.41s"/><rect class="pulse cell" x="340" y="110" width="13" height="18" rx="4" fill="#2470b1" style="animation-delay:0.43s"/><rect class="pulse cell" x="340" y="132" width="13" height="18" rx="4" fill="#38bdf8" style="animation-delay:0.45s"/><rect class="pulse cell" x="340" y="154" width="13" height="18" rx="4" fill="#2470b1" style="animation-delay:0.47s"/><rect class=" cell" x="357" y="22" width="13" height="18" rx="4" fill="#0e243d" style="animation-delay:0.38s"/><rect class=" cell" x="357" y="44" width="13" height="18" rx="4" fill="#12365b" style="animation-delay:0.40s"/><rect class=" cell" x="357" y="66" width="13" height="18" rx="4" fill="#12365b" style="animation-delay:0.41s"/><rect class="pulse cell" x="357" y="88" width="13" height="18" rx="4" fill="#38bdf8" style="animation-delay:0.43s"/><rect class="pulse cell" x="357" y="110" width="13" height="18" rx="4" fill="#38bdf8" style="animation-delay:0.45s"/><rect class="pulse cell" x="357" y="132" width="13" height="18" rx="4" fill="#2470b1" style="animation-delay:0.47s"/><rect class=" cell" x="357" y="154" width="13" height="18" rx="4" fill="#185083" style="animation-delay:0.49s"/><rect class=" cell" x="374" y="22" width="13" height="18" rx="4" fill="#0e243d" style="animation-delay:0.40s"/><rect class=" cell" x="374" y="44" width="13" height="18" rx="4" fill="#12365b" style="animation-delay:0.41s"/><rect class=" cell" x="374" y="66" width="13" height="18" rx="4" fill="#12365b" style="animation-delay:0.43s"/><rect class=" cell" x="374" y="88" width="13" height="18" rx="4" fill="#185083" style="animation-delay:0.45s"/><rect class=" cell" x="374" y="110" width="13" height="18" rx="4" fill="#185083" style="animation-delay:0.47s"/><rect class=" cell" x="374" y="132" width="13" height="18" rx="4" fill="#185083" style="animation-delay:0.49s"/><rect class="pulse cell" x="374" y="154" width="13" height="18" rx="4" fill="#2470b1" style="animation-delay:0.50s"/><rect class=" cell" x="391" y="22" width="13" height="18" rx="4" fill="#0e243d" style="animation-delay:0.41s"/><rect class=" cell" x="391" y="44" width="13" height="18" rx="4" fill="#0e243d" style="animation-delay:0.43s"/><rect class=" cell" x="391" y="66" width="13" height="18" rx="4" fill="#0e243d" style="animation-delay:0.45s"/><rect class=" cell" x="391" y="88" width="13" height="18" rx="4" fill="#12365b" style="animation-delay:0.47s"/><rect class=" cell" x="391" y="110" width="13" height="18" rx="4" fill="#0e243d" style="animation-delay:0.49s"/><rect class=" cell" x="391" y="132" width="13" height="18" rx="4" fill="#185083" style="animation-delay:0.50s"/><rect class=" cell" x="391" y="154" width="13" height="18" rx="4" fill="#12365b" style="animation-delay:0.52s"/><rect class=" cell" x="408" y="22" width="13" height="18" rx="4" fill="#0e243d" style="animation-delay:0.43s"/><rect class=" cell" x="408" y="44" width="13" height="18" rx="4" fill="#0e243d" style="animation-delay:0.45s"/><rect class=" cell" x="408" y="66" width="13" height="18" rx="4" fill="#0e243d" style="animation-delay:0.47s"/><rect class=" cell" x="408" y="88" width="13" height="18" rx="4" fill="#0e243d" style="animation-delay:0.49s"/><rect class=" cell" x="408" y="110" width="13" height="18" rx="4" fill="#0e243d" style="animation-delay:0.50s"/><rect class=" cell" x="408" y="132" width="13" height="18" rx="4" fill="#0e243d" style="animation-delay:0.52s"/><rect class=" cell" x="408" y="154" width="13" height="18" rx="4" fill="#0e243d" style="animation-delay:0.54s"/><rect class=" cell" x="425" y="22" width="13" height="18" rx="4" fill="#185083" style="animation-delay:0.45s"/><rect class=" cell" x="425" y="44" width="13" height="18" rx="4" fill="#185083" style="animation-delay:0.47s"/><rect class=" cell" x="425" y="66" width="13" height="18" rx="4" fill="#12365b" style="animation-delay:0.49s"/><rect class=" cell" x="425" y="88" width="13" height="18" rx="4" fill="#0e243d" style="animation-delay:0.50s"/><rect class=" cell" x="425" y="110" width="13" height="18" rx="4" fill="#0e243d" style="animation-delay:0.52s"/><rect class=" cell" x="425" y="132" width="13" height="18" rx="4" fill="#0e243d" style="animation-delay:0.54s"/><rect class=" cell" x="425" y="154" width="13" height="18" rx="4" fill="#0e243d" style="animation-delay:0.56s"/><rect class=" cell" x="442" y="22" width="13" height="18" rx="4" fill="#12365b" style="animation-delay:0.47s"/><rect class="pulse cell" x="442" y="44" width="13" height="18" rx="4" fill="#2470b1" style="animation-delay:0.49s"/><rect class="pulse cell" x="442" y="66" width="13" height="18" rx="4" fill="#38bdf8" style="animation-delay:0.50s"/><rect class=" cell" x="442" y="88" width="13" height="18" rx="4" fill="#0e243d" style="animation-delay:0.52s"/><rect class=" cell" x="442" y="110" width="13" height="18" rx="4" fill="#12365b" style="animation-delay:0.54s"/><rect class=" cell" x="442" y="132" width="13" height="18" rx="4" fill="#12365b" style="animation-delay:0.56s"/><rect class=" cell" x="442" y="154" width="13" height="18" rx="4" fill="#185083" style="animation-delay:0.58s"/><rect class=" cell" x="459" y="22" width="13" height="18" rx="4" fill="#185083" style="animation-delay:0.49s"/><rect class=" cell" x="459" y="44" width="13" height="18" rx="4" fill="#185083" style="animation-delay:0.50s"/><rect class="pulse cell" x="459" y="66" width="13" height="18" rx="4" fill="#2470b1" style="animation-delay:0.52s"/><rect class="pulse cell" x="459" y="88" width="13" height="18" rx="4" fill="#38bdf8" style="animation-delay:0.54s"/><rect class=" cell" x="459" y="110" width="13" height="18" rx="4" fill="#185083" style="animation-delay:0.56s"/><rect class=" cell" x="459" y="132" width="13" height="18" rx="4" fill="#0e243d" style="animation-delay:0.58s"/><rect class=" cell" x="459" y="154" width="13" height="18" rx="4" fill="#0e243d" style="animation-delay:0.59s"/><rect class="pulse cell" x="476" y="22" width="13" height="18" rx="4" fill="#2470b1" style="animation-delay:0.50s"/><rect class="pulse cell" x="476" y="44" width="13" height="18" rx="4" fill="#2470b1" style="animation-delay:0.52s"/><rect class="pulse cell" x="476" y="66" width="13" height="18" rx="4" fill="#2470b1" style="animation-delay:0.54s"/><rect class=" cell" x="476" y="88" width="13" height="18" rx="4" fill="#185083" style="animation-delay:0.56s"/><rect class=" cell" x="476" y="110" width="13" height="18" rx="4" fill="#185083" style="animation-delay:0.58s"/><rect class=" cell" x="476" y="132" width="13" height="18" rx="4" fill="#0e243d" style="animation-delay:0.59s"/><rect class=" cell" x="476" y="154" width="13" height="18" rx="4" fill="#185083" style="animation-delay:0.61s"/><rect class=" cell" x="493" y="22" width="13" height="18" rx="4" fill="#12365b" style="animation-delay:0.52s"/><rect class=" cell" x="493" y="44" width="13" height="18" rx="4" fill="#185083" style="animation-delay:0.54s"/><rect class="pulse cell" x="493" y="66" width="13" height="18" rx="4" fill="#2470b1" style="animation-delay:0.56s"/><rect class=" cell" x="493" y="88" width="13" height="18" rx="4" fill="#185083" style="animation-delay:0.58s"/><rect class=" cell" x="493" y="110" width="13" height="18" rx="4" fill="#12365b" style="animation-delay:0.59s"/><rect class="pulse cell" x="493" y="132" width="13" height="18" rx="4" fill="#2470b1" style="animation-delay:0.61s"/><rect class=" cell" x="493" y="154" width="13" height="18" rx="4" fill="#12365b" style="animation-delay:0.63s"/><rect class=" cell" x="510" y="22" width="13" height="18" rx="4" fill="#12365b" style="animation-delay:0.54s"/><rect class=" cell" x="510" y="44" width="13" height="18" rx="4" fill="#12365b" style="animation-delay:0.56s"/><rect class=" cell" x="510" y="66" width="13" height="18" rx="4" fill="#12365b" style="animation-delay:0.58s"/><rect class="pulse cell" x="510" y="88" width="13" height="18" rx="4" fill="#2470b1" style="animation-delay:0.59s"/><rect class="pulse cell" x="510" y="110" width="13" height="18" rx="4" fill="#2470b1" style="animation-delay:0.61s"/><rect class=" cell" x="510" y="132" width="13" height="18" rx="4" fill="#12365b" style="animation-delay:0.63s"/><rect class=" cell" x="510" y="154" width="13" height="18" rx="4" fill="#185083" style="animation-delay:0.65s"/><rect class=" cell" x="527" y="22" width="13" height="18" rx="4" fill="#185083" style="animation-delay:0.56s"/><rect class=" cell" x="527" y="44" width="13" height="18" rx="4" fill="#12365b" style="animation-delay:0.58s"/><rect class="pulse cell" x="527" y="66" width="13" height="18" rx="4" fill="#2470b1" style="animation-delay:0.59s"/><rect class=" cell" x="527" y="88" width="13" height="18" rx="4" fill="#185083" style="animation-delay:0.61s"/><rect class=" cell" x="527" y="110" width="13" height="18" rx="4" fill="#185083" style="animation-delay:0.63s"/><rect class=" cell" x="527" y="132" width="13" height="18" rx="4" fill="#0e243d" style="animation-delay:0.65s"/><rect class=" cell" x="527" y="154" width="13" height="18" rx="4" fill="#0e243d" style="animation-delay:0.67s"/><rect class=" cell" x="544" y="22" width="13" height="18" rx="4" fill="#0e243d" style="animation-delay:0.58s"/><rect class=" cell" x="544" y="44" width="13" height="18" rx="4" fill="#0e243d" style="animation-delay:0.59s"/><rect class=" cell" x="544" y="66" width="13" height="18" rx="4" fill="#0e243d" style="animation-delay:0.61s"/><rect class=" cell" x="544" y="88" width="13" height="18" rx="4" fill="#0e243d" style="animation-delay:0.63s"/><rect class=" cell" x="544" y="110" width="13" height="18" rx="4" fill="#0e243d" style="animation-delay:0.65s"/><rect class=" cell" x="544" y="132" width="13" height="18" rx="4" fill="#0e243d" style="animation-delay:0.67s"/><rect class=" cell" x="544" y="154" width="13" height="18" rx="4" fill="#0e243d" style="animation-delay:0.68s"/><rect class=" cell" x="561" y="22" width="13" height="18" rx="4" fill="#0e243d" style="animation-delay:0.59s"/><rect class=" cell" x="561" y="44" width="13" height="18" rx="4" fill="#0e243d" style="animation-delay:0.61s"/><rect class=" cell" x="561" y="66" width="13" height="18" rx="4" fill="#0e243d" style="animation-delay:0.63s"/><rect class=" cell" x="561" y="88" width="13" height="18" rx="4" fill="#0e243d" style="animation-delay:0.65s"/><rect class=" cell" x="561" y="110" width="13" height="18" rx="4" fill="#0e243d" style="animation-delay:0.67s"/><rect class=" cell" x="561" y="132" width="13" height="18" rx="4" fill="#0e243d" style="animation-delay:0.68s"/><rect class=" cell" x="561" y="154" width="13" height="18" rx="4" fill="#0e243d" style="animation-delay:0.70s"/><rect class=" cell" x="578" y="22" width="13" height="18" rx="4" fill="#0e243d" style="animation-delay:0.61s"/><rect class=" cell" x="578" y="44" width="13" height="18" rx="4" fill="#0e243d" style="animation-delay:0.63s"/><rect class=" cell" x="578" y="66" width="13" height="18" rx="4" fill="#0e243d" style="animation-delay:0.65s"/><rect class=" cell" x="578" y="88" width="13" height="18" rx="4" fill="#0e243d" style="animation-delay:0.67s"/><rect class=" cell" x="578" y="110" width="13" height="18" rx="4" fill="#0e243d" style="animation-delay:0.68s"/><rect class=" cell" x="578" y="132" width="13" height="18" rx="4" fill="#0e243d" style="animation-delay:0.70s"/><rect class=" cell" x="578" y="154" width="13" height="18" rx="4" fill="#0e243d" style="animation-delay:0.72s"/><rect class=" cell" x="595" y="22" width="13" height="18" rx="4" fill="#0e243d" style="animation-delay:0.63s"/><rect class=" cell" x="595" y="44" width="13" height="18" rx="4" fill="#185083" style="animation-delay:0.65s"/><rect class=" cell" x="595" y="66" width="13" height="18" rx="4" fill="#185083" style="animation-delay:0.67s"/><rect class=" cell" x="595" y="88" width="13" height="18" rx="4" fill="#185083" style="animation-delay:0.68s"/><rect class=" cell" x="595" y="110" width="13" height="18" rx="4" fill="#12365b" style="animation-delay:0.70s"/><rect class=" cell" x="595" y="132" width="13" height="18" rx="4" fill="#185083" style="animation-delay:0.72s"/><rect class=" cell" x="595" y="154" width="13" height="18" rx="4" fill="#185083" style="animation-delay:0.74s"/><rect class=" cell" x="612" y="22" width="13" height="18" rx="4" fill="#185083" style="animation-delay:0.65s"/><rect class="pulse cell" x="612" y="44" width="13" height="18" rx="4" fill="#2470b1" style="animation-delay:0.67s"/><rect class="pulse cell" x="612" y="66" width="13" height="18" rx="4" fill="#38bdf8" style="animation-delay:0.68s"/><rect class="pulse cell" x="612" y="88" width="13" height="18" rx="4" fill="#38bdf8" style="animation-delay:0.70s"/><rect class="pulse cell" x="612" y="110" width="13" height="18" rx="4" fill="#2470b1" style="animation-delay:0.72s"/><rect class=" cell" x="612" y="132" width="13" height="18" rx="4" fill="#12365b" style="animation-delay:0.74s"/><rect class=" cell" x="612" y="154" width="13" height="18" rx="4" fill="#12365b" style="animation-delay:0.76s"/><rect class=" cell" x="629" y="22" width="13" height="18" rx="4" fill="#185083" style="animation-delay:0.67s"/><rect class="pulse cell" x="629" y="44" width="13" height="18" rx="4" fill="#2470b1" style="animation-delay:0.68s"/><rect class="pulse cell" x="629" y="66" width="13" height="18" rx="4" fill="#2470b1" style="animation-delay:0.70s"/><rect class=" cell" x="629" y="88" width="13" height="18" rx="4" fill="#12365b" style="animation-delay:0.72s"/><rect class=" cell" x="629" y="110" width="13" height="18" rx="4" fill="#185083" style="animation-delay:0.74s"/><rect class=" cell" x="629" y="132" width="13" height="18" rx="4" fill="#185083" style="animation-delay:0.76s"/><rect class=" cell" x="629" y="154" width="13" height="18" rx="4" fill="#12365b" style="animation-delay:0.77s"/><rect class="pulse cell" x="646" y="22" width="13" height="18" rx="4" fill="#2470b1" style="animation-delay:0.68s"/><rect class=" cell" x="646" y="44" width="13" height="18" rx="4" fill="#185083" style="animation-delay:0.70s"/><rect class="pulse cell" x="646" y="66" width="13" height="18" rx="4" fill="#38bdf8" style="animation-delay:0.72s"/><rect class="pulse cell" x="646" y="88" width="13" height="18" rx="4" fill="#2470b1" style="animation-delay:0.74s"/><rect class="pulse cell" x="646" y="110" width="13" height="18" rx="4" fill="#2470b1" style="animation-delay:0.76s"/><rect class=" cell" x="646" y="132" width="13" height="18" rx="4" fill="#12365b" style="animation-delay:0.77s"/><rect class=" cell" x="646" y="154" width="13" height="18" rx="4" fill="#185083" style="animation-delay:0.79s"/><rect class="pulse cell" x="663" y="22" width="13" height="18" rx="4" fill="#38bdf8" style="animation-delay:0.70s"/><rect class="pulse cell" x="663" y="44" width="13" height="18" rx="4" fill="#38bdf8" style="animation-delay:0.72s"/><rect class="pulse cell" x="663" y="66" width="13" height="18" rx="4" fill="#38bdf8" style="animation-delay:0.74s"/><rect class="pulse cell" x="663" y="88" width="13" height="18" rx="4" fill="#2470b1" style="animation-delay:0.76s"/><rect class=" cell" x="663" y="110" width="13" height="18" rx="4" fill="#12365b" style="animation-delay:0.77s"/><rect class=" cell" x="663" y="132" width="13" height="18" rx="4" fill="#185083" style="animation-delay:0.79s"/><rect class=" cell" x="663" y="154" width="13" height="18" rx="4" fill="#0e243d" style="animation-delay:0.81s"/><rect class=" cell" x="680" y="22" width="13" height="18" rx="4" fill="#12365b" style="animation-delay:0.72s"/><rect class="pulse cell" x="680" y="44" width="13" height="18" rx="4" fill="#38bdf8" style="animation-delay:0.74s"/><rect class=" cell" x="680" y="66" width="13" height="18" rx="4" fill="#12365b" style="animation-delay:0.76s"/><rect class=" cell" x="680" y="88" width="13" height="18" rx="4" fill="#12365b" style="animation-delay:0.77s"/><rect class=" cell" x="680" y="110" width="13" height="18" rx="4" fill="#12365b" style="animation-delay:0.79s"/><rect class=" cell" x="680" y="132" width="13" height="18" rx="4" fill="#0e243d" style="animation-delay:0.81s"/><rect class=" cell" x="680" y="154" width="13" height="18" rx="4" fill="#0e243d" style="animation-delay:0.83s"/><rect class="pulse cell" x="697" y="22" width="13" height="18" rx="4" fill="#2470b1" style="animation-delay:0.74s"/><rect class=" cell" x="697" y="44" width="13" height="18" rx="4" fill="#185083" style="animation-delay:0.76s"/><rect class=" cell" x="697" y="66" width="13" height="18" rx="4" fill="#12365b" style="animation-delay:0.77s"/><rect class=" cell" x="697" y="88" width="13" height="18" rx="4" fill="#0e243d" style="animation-delay:0.79s"/><rect class=" cell" x="697" y="110" width="13" height="18" rx="4" fill="#185083" style="animation-delay:0.81s"/><rect class=" cell" x="697" y="132" width="13" height="18" rx="4" fill="#0e243d" style="animation-delay:0.83s"/><rect class=" cell" x="697" y="154" width="13" height="18" rx="4" fill="#0e243d" style="animation-delay:0.85s"/><rect class=" cell" x="714" y="22" width="13" height="18" rx="4" fill="#12365b" style="animation-delay:0.76s"/><rect class="pulse cell" x="714" y="44" width="13" height="18" rx="4" fill="#38bdf8" style="animation-delay:0.77s"/><rect class="pulse cell" x="714" y="66" width="13" height="18" rx="4" fill="#2470b1" style="animation-delay:0.79s"/><rect class="pulse cell" x="714" y="88" width="13" height="18" rx="4" fill="#38bdf8" style="animation-delay:0.81s"/><rect class="pulse cell" x="714" y="110" width="13" height="18" rx="4" fill="#2470b1" style="animation-delay:0.83s"/><rect class=" cell" x="714" y="132" width="13" height="18" rx="4" fill="#12365b" style="animation-delay:0.85s"/><rect class=" cell" x="714" y="154" width="13" height="18" rx="4" fill="#0e243d" style="animation-delay:0.86s"/><rect class=" cell" x="731" y="22" width="13" height="18" rx="4" fill="#12365b" style="animation-delay:0.77s"/><rect class=" cell" x="731" y="44" width="13" height="18" rx="4" fill="#12365b" style="animation-delay:0.79s"/><rect class=" cell" x="731" y="66" width="13" height="18" rx="4" fill="#185083" style="animation-delay:0.81s"/><rect class=" cell" x="731" y="88" width="13" height="18" rx="4" fill="#185083" style="animation-delay:0.83s"/><rect class="pulse cell" x="731" y="110" width="13" height="18" rx="4" fill="#38bdf8" style="animation-delay:0.85s"/><rect class=" cell" x="731" y="132" width="13" height="18" rx="4" fill="#0e243d" style="animation-delay:0.86s"/><rect class=" cell" x="731" y="154" width="13" height="18" rx="4" fill="#0e243d" style="animation-delay:0.88s"/><rect class=" cell" x="748" y="22" width="13" height="18" rx="4" fill="#0e243d" style="animation-delay:0.79s"/><rect class=" cell" x="748" y="44" width="13" height="18" rx="4" fill="#12365b" style="animation-delay:0.81s"/><rect class="pulse cell" x="748" y="66" width="13" height="18" rx="4" fill="#2470b1" style="animation-delay:0.83s"/><rect class="pulse cell" x="748" y="88" width="13" height="18" rx="4" fill="#2470b1" style="animation-delay:0.85s"/><rect class=" cell" x="748" y="110" width="13" height="18" rx="4" fill="#12365b" style="animation-delay:0.86s"/><rect class=" cell" x="748" y="132" width="13" height="18" rx="4" fill="#12365b" style="animation-delay:0.88s"/><rect class=" cell" x="748" y="154" width="13" height="18" rx="4" fill="#0e243d" style="animation-delay:0.90s"/><rect class=" cell" x="765" y="22" width="13" height="18" rx="4" fill="#0e243d" style="animation-delay:0.81s"/><rect class="pulse cell" x="765" y="44" width="13" height="18" rx="4" fill="#2470b1" style="animation-delay:0.83s"/><rect class=" cell" x="765" y="66" width="13" height="18" rx="4" fill="#185083" style="animation-delay:0.85s"/><rect class=" cell" x="765" y="88" width="13" height="18" rx="4" fill="#0e243d" style="animation-delay:0.86s"/><rect class=" cell" x="765" y="110" width="13" height="18" rx="4" fill="#12365b" style="animation-delay:0.88s"/><rect class=" cell" x="765" y="132" width="13" height="18" rx="4" fill="#185083" style="animation-delay:0.90s"/><rect class=" cell" x="765" y="154" width="13" height="18" rx="4" fill="#0e243d" style="animation-delay:0.92s"/><rect class=" cell" x="782" y="22" width="13" height="18" rx="4" fill="#0e243d" style="animation-delay:0.83s"/><rect class=" cell" x="782" y="44" width="13" height="18" rx="4" fill="#12365b" style="animation-delay:0.85s"/><rect class=" cell" x="782" y="66" width="13" height="18" rx="4" fill="#12365b" style="animation-delay:0.86s"/><rect class=" cell" x="782" y="88" width="13" height="18" rx="4" fill="#185083" style="animation-delay:0.88s"/><rect class=" cell" x="782" y="110" width="13" height="18" rx="4" fill="#185083" style="animation-delay:0.90s"/><rect class=" cell" x="782" y="132" width="13" height="18" rx="4" fill="#12365b" style="animation-delay:0.92s"/><rect class=" cell" x="782" y="154" width="13" height="18" rx="4" fill="#0e243d" style="animation-delay:0.94s"/><rect class=" cell" x="799" y="22" width="13" height="18" rx="4" fill="#0e243d" style="animation-delay:0.85s"/><rect class=" cell" x="799" y="44" width="13" height="18" rx="4" fill="#12365b" style="animation-delay:0.86s"/><rect class=" cell" x="799" y="66" width="13" height="18" rx="4" fill="#0e243d" style="animation-delay:0.88s"/><rect class=" cell" x="799" y="88" width="13" height="18" rx="4" fill="#12365b" style="animation-delay:0.90s"/><rect class=" cell" x="799" y="110" width="13" height="18" rx="4" fill="#0e243d" style="animation-delay:0.92s"/><rect class=" cell" x="799" y="132" width="13" height="18" rx="4" fill="#185083" style="animation-delay:0.94s"/><rect class=" cell" x="799" y="154" width="13" height="18" rx="4" fill="#0e243d" style="animation-delay:0.95s"/><rect class=" cell" x="816" y="22" width="13" height="18" rx="4" fill="#0e243d" style="animation-delay:0.86s"/><rect class=" cell" x="816" y="44" width="13" height="18" rx="4" fill="#0e243d" style="animation-delay:0.88s"/><rect class=" cell" x="816" y="66" width="13" height="18" rx="4" fill="#0e243d" style="animation-delay:0.90s"/><rect class=" cell" x="816" y="88" width="13" height="18" rx="4" fill="#12365b" style="animation-delay:0.92s"/><rect class=" cell" x="816" y="110" width="13" height="18" rx="4" fill="#185083" style="animation-delay:0.94s"/><rect class=" cell" x="816" y="132" width="13" height="18" rx="4" fill="#185083" style="animation-delay:0.95s"/><rect class=" cell" x="816" y="154" width="13" height="18" rx="4" fill="#12365b" style="animation-delay:0.97s"/><rect class=" cell" x="833" y="22" width="13" height="18" rx="4" fill="#0e243d" style="animation-delay:0.88s"/><rect class=" cell" x="833" y="44" width="13" height="18" rx="4" fill="#0e243d" style="animation-delay:0.90s"/><rect class=" cell" x="833" y="66" width="13" height="18" rx="4" fill="#12365b" style="animation-delay:0.92s"/><rect class="pulse cell" x="833" y="88" width="13" height="18" rx="4" fill="#2470b1" style="animation-delay:0.94s"/><rect class="pulse cell" x="833" y="110" width="13" height="18" rx="4" fill="#2470b1" style="animation-delay:0.95s"/><rect class=" cell" x="833" y="132" width="13" height="18" rx="4" fill="#185083" style="animation-delay:0.97s"/><rect class="pulse cell" x="833" y="154" width="13" height="18" rx="4" fill="#2470b1" style="animation-delay:0.99s"/><rect class=" cell" x="850" y="22" width="13" height="18" rx="4" fill="#0e243d" style="animation-delay:0.90s"/><rect class=" cell" x="850" y="44" width="13" height="18" rx="4" fill="#0e243d" style="animation-delay:0.92s"/><rect class=" cell" x="850" y="66" width="13" height="18" rx="4" fill="#0e243d" style="animation-delay:0.94s"/><rect class=" cell" x="850" y="88" width="13" height="18" rx="4" fill="#12365b" style="animation-delay:0.95s"/><rect class="pulse cell" x="850" y="110" width="13" height="18" rx="4" fill="#2470b1" style="animation-delay:0.97s"/><rect class=" cell" x="850" y="132" width="13" height="18" rx="4" fill="#12365b" style="animation-delay:0.99s"/><rect class=" cell" x="850" y="154" width="13" height="18" rx="4" fill="#185083" style="animation-delay:1.01s"/><rect class=" cell" x="867" y="22" width="13" height="18" rx="4" fill="#0e243d" style="animation-delay:0.92s"/><rect class=" cell" x="867" y="44" width="13" height="18" rx="4" fill="#0e243d" style="animation-delay:0.94s"/><rect class=" cell" x="867" y="66" width="13" height="18" rx="4" fill="#185083" style="animation-delay:0.95s"/><rect class="pulse cell" x="867" y="88" width="13" height="18" rx="4" fill="#2470b1" style="animation-delay:0.97s"/><rect class=" cell" x="867" y="110" width="13" height="18" rx="4" fill="#12365b" style="animation-delay:0.99s"/><rect class="pulse cell" x="867" y="132" width="13" height="18" rx="4" fill="#2470b1" style="animation-delay:1.01s"/><rect class="pulse cell" x="867" y="154" width="13" height="18" rx="4" fill="#2470b1" style="animation-delay:1.03s"/><rect class=" cell" x="884" y="22" width="13" height="18" rx="4" fill="#12365b" style="animation-delay:0.94s"/><rect class=" cell" x="884" y="44" width="13" height="18" rx="4" fill="#0e243d" style="animation-delay:0.95s"/><rect class=" cell" x="884" y="66" width="13" height="18" rx="4" fill="#185083" style="animation-delay:0.97s"/><rect class=" cell" x="884" y="88" width="13" height="18" rx="4" fill="#12365b" style="animation-delay:0.99s"/><rect class=" cell" x="884" y="110" width="13" height="18" rx="4" fill="#12365b" style="animation-delay:1.01s"/><rect class=" cell" x="884" y="132" width="13" height="18" rx="4" fill="#185083" style="animation-delay:1.03s"/><rect class=" cell" x="884" y="154" width="13" height="18" rx="4" fill="#12365b" style="animation-delay:1.04s"/></g>
<g transform="translate(34 230)"><text fill="#55708f" font-size="10">Less</text><rect x="35" y="-10" width="13" height="13" rx="3" fill="#0e243d"/><rect x="53" y="-10" width="13" height="13" rx="3" fill="#12365b"/><rect x="71" y="-10" width="13" height="13" rx="3" fill="#185083"/><rect x="89" y="-10" width="13" height="13" rx="3" fill="#2470b1"/><rect x="107" y="-10" width="13" height="13" rx="3" fill="#38bdf8"/><text x="135" y="0" fill="#55708f" font-size="10">More</text></g></svg>